<svg width="250" height="250" xmlns="http://www.w3.org/2000/svg">
 <style type="text/css">.st0{fill:#DD0031;}
	.st1{fill:#C3002F;}
	.st2{fill:#FFFFFF;}</style>

 <g>
  <title>background</title>
  <rect fill="none" id="canvas_background" height="402" width="582" y="-1" x="-1"/>
 </g>
 <g>
  <title>Layer 1</title>
  <g stroke="null" id="svg_1">
   <polygon stroke="null" id="svg_2" points="125.49999237060547,0.7024612426757812 125.49999237060547,0.7024612426757812 125.49999237060547,0.7024612426757812 9.899989128112793,41.92609405517578 27.531782150268555,194.7763671875 125.49999237060547,249.03758239746094 125.49999237060547,249.03758239746094 125.49999237060547,249.03758239746094 223.46820068359375,194.7763671875 241.10000610351562,41.92609405517578 " class="st0"/>
   <polygon stroke="null" id="svg_3" points="125.49999237060547,0.7024612426757812 125.49999237060547,28.267662048339844 125.49999237060547,28.143491744995117 125.49999237060547,153.92523193359375 125.49999237060547,153.92523193359375 125.49999237060547,249.03758239746094 125.49999237060547,249.03758239746094 223.46820068359375,194.7763671875 241.10000610351562,41.92609405517578 125.49999237060547,0.7024612426757812 " class="st1"/>
   <path stroke="null" id="svg_4" d="m125.499993,28.143493l-72.265522,162.038671l0,0l26.944361,0l0,0l14.527605,-36.256929l61.338777,0l14.527605,36.256929l0,0l26.944361,0l0,0l-72.017187,-162.038671l0,0l0,0l0,0l0,0zm21.108486,103.431581l-42.216972,0l21.108486,-50.784534l21.108486,50.784534z" class="st2"/>
  </g>
 </g>
</svg>